<mxfile host="app.diagrams.net" modified="2024-07-07T22:22:01.323Z" agent="Mozilla/5.0 (Macintosh; Intel Mac OS X 10_15_7) AppleWebKit/605.1.15 (KHTML, like Gecko) Version/16.6 Safari/605.1.15" etag="qTdIK2aQLKjvuRtPSA8h" version="24.6.4" type="github">
  <diagram name="Page-1" id="byTkU_CuafjEMVBh8lMS">
    <mxGraphModel dx="3119" dy="2663" grid="1" gridSize="10" guides="1" tooltips="1" connect="1" arrows="1" fold="1" page="1" pageScale="1" pageWidth="850" pageHeight="1100" math="0" shadow="0">
      <root>
        <mxCell id="0" />
        <mxCell id="1" parent="0" />
        <mxCell id="Vm0NTs8RJYQJ-9ndtkTR-4" value="Packages" style="html=1;overflow=block;blockSpacing=1;whiteSpace=wrap;fontSize=21.7;fontStyle=1;spacing=3.8;strokeColor=#unset;fillOpacity=100;rounded=1;absoluteArcSize=1;arcSize=9;fillColor=#fc9432;strokeWidth=3.8;lucidId=EXbSRTPvuF5~;" vertex="1" parent="1">
          <mxGeometry x="-30" y="-157" width="120" height="90" as="geometry" />
        </mxCell>
        <mxCell id="Vm0NTs8RJYQJ-9ndtkTR-5" value="Attribute" style="html=1;overflow=block;blockSpacing=1;whiteSpace=wrap;ellipse;fontSize=20;fontStyle=1;spacing=3.8;strokeColor=#unset;fillOpacity=100;rounded=1;absoluteArcSize=1;arcSize=9;fillColor=#ff80df;strokeWidth=3;lucidId=LXbST5yNqJqy;" vertex="1" parent="1">
          <mxGeometry x="645" y="-390" width="120" height="90" as="geometry" />
        </mxCell>
        <mxCell id="Vm0NTs8RJYQJ-9ndtkTR-7" value="User" style="html=1;overflow=block;blockSpacing=1;whiteSpace=wrap;fontSize=21.7;fontStyle=1;spacing=3.8;strokeColor=#unset;fillOpacity=100;rounded=1;absoluteArcSize=1;arcSize=9;fillColor=#fc9432;strokeWidth=3.8;lucidId=YZbSYnz.0J.2;" vertex="1" parent="1">
          <mxGeometry x="378" y="-311" width="120" height="90" as="geometry" />
        </mxCell>
        <mxCell id="Vm0NTs8RJYQJ-9ndtkTR-8" value="" style="html=1;jettySize=18;whiteSpace=wrap;fontSize=13;strokeColor=#3a414a;strokeOpacity=100;strokeWidth=0.8;rounded=1;arcSize=12;edgeStyle=orthogonalEdgeStyle;startArrow=none;endArrow=block;endFill=1;exitX=1.016;exitY=0.5;exitPerimeter=0;entryX=-0.013;entryY=0.5;entryPerimeter=0;lucidId=7ZbSB_53zHlx;" edge="1" parent="1" source="Vm0NTs8RJYQJ-9ndtkTR-7" target="Vm0NTs8RJYQJ-9ndtkTR-9">
          <mxGeometry width="100" height="100" relative="1" as="geometry">
            <Array as="points" />
          </mxGeometry>
        </mxCell>
        <mxCell id="Vm0NTs8RJYQJ-9ndtkTR-9" value="Name" style="html=1;overflow=block;blockSpacing=1;whiteSpace=wrap;ellipse;fontSize=20;fontStyle=1;spacing=3.8;strokeColor=#unset;fillOpacity=100;rounded=1;absoluteArcSize=1;arcSize=9;fillColor=#ff80df;strokeWidth=3;lucidId=.ZbSdwqlzhHT;" vertex="1" parent="1">
          <mxGeometry x="510" y="-435" width="120" height="90" as="geometry" />
        </mxCell>
        <mxCell id="Vm0NTs8RJYQJ-9ndtkTR-10" value="" style="html=1;jettySize=18;whiteSpace=wrap;fontSize=13;strokeColor=#3a414a;strokeOpacity=100;strokeWidth=0.8;rounded=1;arcSize=12;edgeStyle=orthogonalEdgeStyle;startArrow=none;endArrow=block;endFill=1;exitX=0.5;exitY=-0.021;exitPerimeter=0;entryX=0.5;entryY=1.017;entryPerimeter=0;lucidId=z0bSmeC-49aR;" edge="1" parent="1" source="Vm0NTs8RJYQJ-9ndtkTR-7" target="Vm0NTs8RJYQJ-9ndtkTR-11">
          <mxGeometry width="100" height="100" relative="1" as="geometry">
            <Array as="points" />
          </mxGeometry>
        </mxCell>
        <mxCell id="Vm0NTs8RJYQJ-9ndtkTR-11" value="Password" style="html=1;overflow=block;blockSpacing=1;whiteSpace=wrap;ellipse;fontSize=20;fontStyle=1;spacing=3.8;strokeColor=#unset;fillOpacity=100;rounded=1;absoluteArcSize=1;arcSize=9;fillColor=#ff80df;strokeWidth=3;lucidId=B0bS5aiGuGeA;" vertex="1" parent="1">
          <mxGeometry x="378" y="-450" width="120" height="90" as="geometry" />
        </mxCell>
        <mxCell id="Vm0NTs8RJYQJ-9ndtkTR-12" value="" style="html=1;jettySize=18;whiteSpace=wrap;fontSize=13;strokeColor=#3a414a;strokeOpacity=100;strokeWidth=0.8;rounded=1;arcSize=12;edgeStyle=orthogonalEdgeStyle;startArrow=none;endArrow=block;endFill=1;exitX=-0.016;exitY=0.5;exitPerimeter=0;entryX=1.013;entryY=0.5;entryPerimeter=0;lucidId=P0bSBHweQ1nK;" edge="1" parent="1" source="Vm0NTs8RJYQJ-9ndtkTR-7" target="Vm0NTs8RJYQJ-9ndtkTR-13">
          <mxGeometry width="100" height="100" relative="1" as="geometry">
            <Array as="points" />
          </mxGeometry>
        </mxCell>
        <mxCell id="Vm0NTs8RJYQJ-9ndtkTR-13" value="Email" style="html=1;overflow=block;blockSpacing=1;whiteSpace=wrap;ellipse;fontSize=20;fontStyle=1;spacing=3.8;strokeColor=#unset;fillOpacity=100;rounded=1;absoluteArcSize=1;arcSize=9;fillColor=#ff80df;strokeWidth=3;lucidId=Q0bS8uSgB5ad;" vertex="1" parent="1">
          <mxGeometry x="247" y="-420" width="120" height="90" as="geometry" />
        </mxCell>
        <mxCell id="Vm0NTs8RJYQJ-9ndtkTR-14" value="History" style="html=1;overflow=block;blockSpacing=1;whiteSpace=wrap;ellipse;fontSize=20;fontStyle=1;spacing=3.8;strokeColor=#unset;fillOpacity=100;rounded=1;absoluteArcSize=1;arcSize=9;fillColor=#ff80df;strokeWidth=3;lucidId=40bSq5ca8X3i;" vertex="1" parent="1">
          <mxGeometry x="180" y="-330" width="120" height="90" as="geometry" />
        </mxCell>
        <mxCell id="Vm0NTs8RJYQJ-9ndtkTR-15" value="" style="html=1;jettySize=18;whiteSpace=wrap;fontSize=13;strokeColor=#3a414a;strokeOpacity=100;strokeWidth=0.8;rounded=1;arcSize=12;edgeStyle=orthogonalEdgeStyle;startArrow=none;endArrow=block;endFill=1;exitX=1.016;exitY=0.5;exitPerimeter=0;entryX=-0.013;entryY=0.5;entryPerimeter=0;lucidId=g2bSK4_5geZV;" edge="1" parent="1" source="Vm0NTs8RJYQJ-9ndtkTR-7" target="Vm0NTs8RJYQJ-9ndtkTR-5">
          <mxGeometry width="100" height="100" relative="1" as="geometry">
            <Array as="points" />
          </mxGeometry>
        </mxCell>
        <mxCell id="Vm0NTs8RJYQJ-9ndtkTR-16" value="" style="html=1;jettySize=18;whiteSpace=wrap;fontSize=13;strokeColor=#3a414a;strokeOpacity=100;strokeWidth=0.8;rounded=1;arcSize=12;edgeStyle=orthogonalEdgeStyle;startArrow=none;endArrow=block;endFill=1;exitX=-0.016;exitY=0.51;exitPerimeter=0;entryX=1.013;entryY=0.5;entryPerimeter=0;lucidId=s2bSZxYVvQl6;" edge="1" parent="1" source="Vm0NTs8RJYQJ-9ndtkTR-7" target="Vm0NTs8RJYQJ-9ndtkTR-14">
          <mxGeometry width="100" height="100" relative="1" as="geometry">
            <Array as="points" />
          </mxGeometry>
        </mxCell>
        <mxCell id="Vm0NTs8RJYQJ-9ndtkTR-17" value="UserID" style="html=1;overflow=block;blockSpacing=1;whiteSpace=wrap;ellipse;fontSize=20;fontStyle=5;spacing=3.8;strokeColor=#unset;fillOpacity=100;rounded=1;absoluteArcSize=1;arcSize=9;fillColor=#ff80df;strokeWidth=3;lucidId=K2bSB_i5KHz1;" vertex="1" parent="1">
          <mxGeometry x="577" y="-285" width="120" height="90" as="geometry" />
        </mxCell>
        <mxCell id="Vm0NTs8RJYQJ-9ndtkTR-18" value="" style="html=1;jettySize=18;whiteSpace=wrap;fontSize=13;strokeColor=#3a414a;strokeOpacity=100;strokeWidth=0.8;rounded=1;arcSize=12;edgeStyle=orthogonalEdgeStyle;startArrow=none;endArrow=block;endFill=1;entryX=-0.013;entryY=0.5;entryPerimeter=0;lucidId=p3bSpB0GtI6B;" edge="1" parent="1" target="Vm0NTs8RJYQJ-9ndtkTR-17">
          <mxGeometry width="100" height="100" relative="1" as="geometry">
            <Array as="points" />
            <mxPoint x="500" y="-266" as="sourcePoint" />
          </mxGeometry>
        </mxCell>
        <mxCell id="Vm0NTs8RJYQJ-9ndtkTR-19" value="Payment" style="html=1;overflow=block;blockSpacing=1;whiteSpace=wrap;fontSize=21.7;fontStyle=1;spacing=3.8;strokeColor=#unset;fillOpacity=100;rounded=1;absoluteArcSize=1;arcSize=9;fillColor=#fc9432;strokeWidth=3.8;lucidId=H3bSISB6gANE;" vertex="1" parent="1">
          <mxGeometry x="870" y="-285" width="120" height="90" as="geometry" />
        </mxCell>
        <mxCell id="Vm0NTs8RJYQJ-9ndtkTR-20" value="" style="html=1;jettySize=18;whiteSpace=wrap;fontSize=13;strokeColor=#3a414a;strokeOpacity=100;strokeWidth=0.8;rounded=1;arcSize=12;edgeStyle=orthogonalEdgeStyle;startArrow=none;endArrow=block;endFill=1;exitX=1.016;exitY=0.5;exitPerimeter=0;entryX=-0.013;entryY=0.5;entryPerimeter=0;lucidId=S3bS1qOYDaAQ;" edge="1" parent="1" source="Vm0NTs8RJYQJ-9ndtkTR-19" target="Vm0NTs8RJYQJ-9ndtkTR-21">
          <mxGeometry width="100" height="100" relative="1" as="geometry">
            <Array as="points" />
          </mxGeometry>
        </mxCell>
        <mxCell id="Vm0NTs8RJYQJ-9ndtkTR-21" value="Amounr" style="html=1;overflow=block;blockSpacing=1;whiteSpace=wrap;ellipse;fontSize=20;fontStyle=1;spacing=3.8;strokeColor=#unset;fillOpacity=100;rounded=1;absoluteArcSize=1;arcSize=9;fillColor=#ff80df;strokeWidth=3;lucidId=T3bSajYixnc.;" vertex="1" parent="1">
          <mxGeometry x="975" y="-401" width="120" height="90" as="geometry" />
        </mxCell>
        <mxCell id="Vm0NTs8RJYQJ-9ndtkTR-22" value="" style="html=1;jettySize=18;whiteSpace=wrap;fontSize=13;strokeColor=#3a414a;strokeOpacity=100;strokeWidth=0.8;rounded=1;arcSize=12;edgeStyle=orthogonalEdgeStyle;startArrow=none;endArrow=block;endFill=1;exitX=0.5;exitY=-0.021;exitPerimeter=0;entryX=0.5;entryY=1.013;entryPerimeter=0;lucidId=73bSU-ACj_br;" edge="1" parent="1" source="Vm0NTs8RJYQJ-9ndtkTR-19">
          <mxGeometry width="100" height="100" relative="1" as="geometry">
            <Array as="points" />
            <mxPoint x="900" y="-343.8299999999999" as="targetPoint" />
          </mxGeometry>
        </mxCell>
        <mxCell id="Vm0NTs8RJYQJ-9ndtkTR-24" value="PaymentID" style="html=1;overflow=block;blockSpacing=1;whiteSpace=wrap;ellipse;fontSize=20;fontStyle=5;spacing=3.8;strokeColor=#unset;fillOpacity=100;rounded=1;absoluteArcSize=1;arcSize=9;fillColor=#ff80df;strokeWidth=3;lucidId=o4bSwxFCyNxO;" vertex="1" parent="1">
          <mxGeometry x="1020" y="-285" width="120" height="90" as="geometry" />
        </mxCell>
        <mxCell id="Vm0NTs8RJYQJ-9ndtkTR-25" value="" style="html=1;jettySize=18;whiteSpace=wrap;fontSize=13;strokeColor=#3a414a;strokeOpacity=100;strokeWidth=0.8;rounded=1;arcSize=12;edgeStyle=orthogonalEdgeStyle;startArrow=none;endArrow=block;endFill=1;exitX=1.016;exitY=0.457;exitPerimeter=0;entryX=-0.011;entryY=0.457;entryPerimeter=0;lucidId=c5bSAEdrJj4_;" edge="1" parent="1" source="Vm0NTs8RJYQJ-9ndtkTR-19" target="Vm0NTs8RJYQJ-9ndtkTR-24">
          <mxGeometry width="100" height="100" relative="1" as="geometry">
            <Array as="points" />
          </mxGeometry>
        </mxCell>
        <mxCell id="Vm0NTs8RJYQJ-9ndtkTR-26" value="Makes" style="html=1;overflow=block;blockSpacing=1;whiteSpace=wrap;shape=rhombus;fontSize=20;fontStyle=1;spacing=3.8;strokeColor=#unset;fillOpacity=100;rounded=1;absoluteArcSize=1;arcSize=9;fillColor=#54c45e;strokeWidth=2.3;lucidId=t5bSBTf5RIRk;" vertex="1" parent="1">
          <mxGeometry x="690" y="-150" width="120" height="105" as="geometry" />
        </mxCell>
        <mxCell id="Vm0NTs8RJYQJ-9ndtkTR-27" value="" style="html=1;jettySize=18;whiteSpace=wrap;fontSize=13;strokeColor=#3a414a;strokeOpacity=100;strokeWidth=0.8;rounded=1;arcSize=12;edgeStyle=orthogonalEdgeStyle;startArrow=none;endArrow=block;endFill=1;exitX=0.992;exitY=0.5;exitPerimeter=0;entryX=0.5;entryY=1.021;entryPerimeter=0;lucidId=G5bSSvBuG59.;" edge="1" parent="1" source="Vm0NTs8RJYQJ-9ndtkTR-26" target="Vm0NTs8RJYQJ-9ndtkTR-19">
          <mxGeometry width="100" height="100" relative="1" as="geometry">
            <Array as="points" />
          </mxGeometry>
        </mxCell>
        <mxCell id="Vm0NTs8RJYQJ-9ndtkTR-28" value="" style="html=1;jettySize=18;whiteSpace=wrap;fontSize=13;strokeColor=#3a414a;strokeOpacity=100;strokeWidth=0.8;rounded=1;arcSize=12;edgeStyle=orthogonalEdgeStyle;startArrow=none;endArrow=block;endFill=1;exitX=0.008;exitY=0.5;exitPerimeter=0;entryX=0.994;entryY=1.007;entryPerimeter=0;lucidId=P5bSblzbQpNB;" edge="1" parent="1" source="Vm0NTs8RJYQJ-9ndtkTR-26" target="Vm0NTs8RJYQJ-9ndtkTR-7">
          <mxGeometry width="100" height="100" relative="1" as="geometry">
            <Array as="points" />
          </mxGeometry>
        </mxCell>
        <mxCell id="Vm0NTs8RJYQJ-9ndtkTR-29" value="Picks" style="html=1;overflow=block;blockSpacing=1;whiteSpace=wrap;shape=rhombus;fontSize=20;fontStyle=1;spacing=3.8;strokeColor=#unset;fillOpacity=100;rounded=1;absoluteArcSize=1;arcSize=9;fillColor=#54c45e;strokeWidth=2.3;lucidId=t6bSnjCEv3h0;" vertex="1" parent="1">
          <mxGeometry x="180" y="-195" width="120" height="105" as="geometry" />
        </mxCell>
        <mxCell id="Vm0NTs8RJYQJ-9ndtkTR-32" value="" style="html=1;overflow=block;blockSpacing=1;whiteSpace=wrap;ellipse;fontSize=13;spacing=0;strokeColor=#unset;rounded=1;absoluteArcSize=1;arcSize=9;fillColor=#unset;strokeWidth=NaN;lucidId=Z7bSfsD_dlJJ;" vertex="1" parent="1">
          <mxGeometry x="-150" y="-30" width="45" height="45" as="geometry" />
        </mxCell>
        <mxCell id="Vm0NTs8RJYQJ-9ndtkTR-33" value="Custom" style="html=1;overflow=block;blockSpacing=1;whiteSpace=wrap;fontSize=21.7;fontStyle=1;spacing=3.8;strokeColor=#unset;fillOpacity=100;rounded=1;absoluteArcSize=1;arcSize=9;fillColor=#fc9432;strokeWidth=3.8;lucidId=c9bSj~b5tVVE;" vertex="1" parent="1">
          <mxGeometry x="-465" y="45" width="143" height="90" as="geometry" />
        </mxCell>
        <mxCell id="Vm0NTs8RJYQJ-9ndtkTR-34" value="Premade" style="html=1;overflow=block;blockSpacing=1;whiteSpace=wrap;fontSize=21.7;fontStyle=1;spacing=3.8;strokeColor=#unset;fillOpacity=100;rounded=1;absoluteArcSize=1;arcSize=9;fillColor=#fc9432;strokeWidth=3.8;lucidId=n9bSdfL6wLLt;" vertex="1" parent="1">
          <mxGeometry x="-105" y="60" width="120" height="90" as="geometry" />
        </mxCell>
        <mxCell id="Vm0NTs8RJYQJ-9ndtkTR-35" value="" style="html=1;jettySize=18;whiteSpace=wrap;fontSize=13;strokeColor=#3a414a;strokeOpacity=100;strokeWidth=0.8;rounded=1;arcSize=12;edgeStyle=orthogonalEdgeStyle;startArrow=none;endArrow=block;endFill=1;exitX=0.5;exitY=-0.021;exitPerimeter=0;entryX=-0.017;entryY=0.5;entryPerimeter=0;lucidId=X-bSeMrTPJao;" edge="1" parent="1" source="Vm0NTs8RJYQJ-9ndtkTR-33" target="Vm0NTs8RJYQJ-9ndtkTR-32">
          <mxGeometry width="100" height="100" relative="1" as="geometry">
            <Array as="points" />
          </mxGeometry>
        </mxCell>
        <mxCell id="Vm0NTs8RJYQJ-9ndtkTR-36" value="" style="html=1;jettySize=18;whiteSpace=wrap;fontSize=13;strokeColor=#3a414a;strokeOpacity=100;strokeWidth=0.8;rounded=1;arcSize=12;edgeStyle=orthogonalEdgeStyle;startArrow=none;endArrow=block;endFill=1;exitX=0.5;exitY=-0.021;exitPerimeter=0;entryX=1.017;entryY=0.5;entryPerimeter=0;lucidId=4-bSxH5LNiTz;" edge="1" parent="1" source="Vm0NTs8RJYQJ-9ndtkTR-34" target="Vm0NTs8RJYQJ-9ndtkTR-32">
          <mxGeometry width="100" height="100" relative="1" as="geometry">
            <Array as="points" />
          </mxGeometry>
        </mxCell>
        <mxCell id="Vm0NTs8RJYQJ-9ndtkTR-37" value="" style="html=1;jettySize=18;whiteSpace=wrap;fontSize=13;strokeColor=#3a414a;strokeOpacity=100;strokeWidth=0.8;rounded=1;arcSize=12;edgeStyle=orthogonalEdgeStyle;startArrow=none;endArrow=block;endFill=1;exitX=0.424;exitY=1.021;exitPerimeter=0;entryX=0.5;entryY=-0.017;entryPerimeter=0;lucidId=t_bS~11_V2eZ;" edge="1" parent="1" source="Vm0NTs8RJYQJ-9ndtkTR-4" target="Vm0NTs8RJYQJ-9ndtkTR-41">
          <mxGeometry width="100" height="100" relative="1" as="geometry">
            <Array as="points" />
          </mxGeometry>
        </mxCell>
        <mxCell id="Vm0NTs8RJYQJ-9ndtkTR-38" value="" style="html=1;jettySize=18;whiteSpace=wrap;fontSize=13;strokeColor=#3a414a;strokeOpacity=100;strokeWidth=0.8;rounded=1;arcSize=12;edgeStyle=orthogonalEdgeStyle;startArrow=none;endArrow=block;endFill=1;exitX=-0.016;exitY=0.5;exitPerimeter=0;entryX=0.5;entryY=-0.017;entryPerimeter=0;lucidId=d~bSR4m6u5LU;" edge="1" parent="1" source="Vm0NTs8RJYQJ-9ndtkTR-4" target="Vm0NTs8RJYQJ-9ndtkTR-32">
          <mxGeometry width="100" height="100" relative="1" as="geometry">
            <Array as="points" />
          </mxGeometry>
        </mxCell>
        <mxCell id="Vm0NTs8RJYQJ-9ndtkTR-39" value="" style="html=1;jettySize=18;whiteSpace=wrap;fontSize=13;strokeColor=#3a414a;strokeOpacity=100;strokeWidth=0.8;rounded=1;arcSize=12;edgeStyle=orthogonalEdgeStyle;startArrow=none;endArrow=block;endFill=1;exitX=-0.016;exitY=0.639;exitPerimeter=0;entryX=0.748;entryY=0.047;entryPerimeter=0;lucidId=V~bS01zuuZ.E;" edge="1" parent="1" source="Vm0NTs8RJYQJ-9ndtkTR-4" target="Vm0NTs8RJYQJ-9ndtkTR-32">
          <mxGeometry width="100" height="100" relative="1" as="geometry">
            <Array as="points" />
          </mxGeometry>
        </mxCell>
        <mxCell id="Vm0NTs8RJYQJ-9ndtkTR-40" value="ShoppingCart" style="html=1;overflow=block;blockSpacing=1;whiteSpace=wrap;fontSize=21.7;fontStyle=1;spacing=3.8;strokeColor=#unset;fillOpacity=100;rounded=1;absoluteArcSize=1;arcSize=9;fillColor=#fc9432;strokeWidth=3.8;lucidId=lacS7fBotPXL;" vertex="1" parent="1">
          <mxGeometry x="53" y="60" width="165" height="90" as="geometry" />
        </mxCell>
        <mxCell id="Vm0NTs8RJYQJ-9ndtkTR-41" value="" style="html=1;overflow=block;blockSpacing=1;whiteSpace=wrap;ellipse;fontSize=13;spacing=0;strokeColor=#unset;rounded=1;absoluteArcSize=1;arcSize=9;fillColor=#unset;strokeWidth=NaN;lucidId=ebcSCifTSt10;" vertex="1" parent="1">
          <mxGeometry x="195" y="-30" width="45" height="45" as="geometry" />
        </mxCell>
        <mxCell id="Vm0NTs8RJYQJ-9ndtkTR-42" value="" style="html=1;jettySize=18;whiteSpace=wrap;fontSize=13;strokeColor=#3a414a;strokeOpacity=100;strokeWidth=0.8;rounded=1;arcSize=12;edgeStyle=orthogonalEdgeStyle;startArrow=none;endArrow=block;endFill=1;exitX=0.308;exitY=1.021;exitPerimeter=0;lucidId=GbcSAAmsF-ua;" edge="1" parent="1" source="Vm0NTs8RJYQJ-9ndtkTR-4">
          <mxGeometry width="100" height="100" relative="1" as="geometry">
            <Array as="points" />
            <mxPoint x="218" y="-48" as="targetPoint" />
          </mxGeometry>
        </mxCell>
        <mxCell id="Vm0NTs8RJYQJ-9ndtkTR-43" value="" style="html=1;jettySize=18;whiteSpace=wrap;fontSize=13;strokeColor=#3a414a;strokeOpacity=100;strokeWidth=0.8;rounded=1;arcSize=12;edgeStyle=orthogonalEdgeStyle;startArrow=none;endArrow=block;endFill=1;exitX=0.5;exitY=-0.021;exitPerimeter=0;entryX=0.5;entryY=1.017;entryPerimeter=0;lucidId=pccSZMdmMqzK;" edge="1" parent="1" source="Vm0NTs8RJYQJ-9ndtkTR-40" target="Vm0NTs8RJYQJ-9ndtkTR-41">
          <mxGeometry width="100" height="100" relative="1" as="geometry">
            <Array as="points" />
          </mxGeometry>
        </mxCell>
        <mxCell id="Vm0NTs8RJYQJ-9ndtkTR-44" value="" style="html=1;jettySize=18;whiteSpace=wrap;fontSize=13;strokeColor=#3a414a;strokeOpacity=100;strokeWidth=0.8;rounded=1;arcSize=12;edgeStyle=orthogonalEdgeStyle;startArrow=none;endArrow=block;endFill=1;exitX=0.5;exitY=-0.021;exitPerimeter=0;entryX=0.779;entryY=0.935;entryPerimeter=0;lucidId=KccS8-PlDSSm;" edge="1" parent="1" source="Vm0NTs8RJYQJ-9ndtkTR-45" target="Vm0NTs8RJYQJ-9ndtkTR-41">
          <mxGeometry width="100" height="100" relative="1" as="geometry">
            <Array as="points" />
          </mxGeometry>
        </mxCell>
        <mxCell id="Vm0NTs8RJYQJ-9ndtkTR-45" value="Wishlist" style="html=1;overflow=block;blockSpacing=1;whiteSpace=wrap;fontSize=21.7;fontStyle=1;spacing=3.8;strokeColor=#unset;fillOpacity=100;rounded=1;absoluteArcSize=1;arcSize=9;fillColor=#fc9432;strokeWidth=3.8;lucidId=4ccS9uwuvIcF;" vertex="1" parent="1">
          <mxGeometry x="270" y="60" width="120" height="90" as="geometry" />
        </mxCell>
        <mxCell id="Vm0NTs8RJYQJ-9ndtkTR-46" value="" style="html=1;jettySize=18;whiteSpace=wrap;fontSize=13;strokeColor=#3a414a;strokeOpacity=100;strokeWidth=0.8;rounded=1;arcSize=12;edgeStyle=orthogonalEdgeStyle;startArrow=none;endArrow=block;endFill=1;exitX=0.5;exitY=1.021;exitPerimeter=0;entryX=0.5;entryY=-0.017;entryPerimeter=0;lucidId=ydcS17Yk8-ik;" edge="1" parent="1" source="Vm0NTs8RJYQJ-9ndtkTR-34" target="Vm0NTs8RJYQJ-9ndtkTR-47">
          <mxGeometry width="100" height="100" relative="1" as="geometry">
            <Array as="points" />
          </mxGeometry>
        </mxCell>
        <mxCell id="Vm0NTs8RJYQJ-9ndtkTR-47" value="Name" style="html=1;overflow=block;blockSpacing=1;whiteSpace=wrap;ellipse;fontSize=20;fontStyle=5;spacing=3.8;strokeColor=#unset;fillOpacity=100;rounded=1;absoluteArcSize=1;arcSize=9;fillColor=#ff80df;strokeWidth=3;lucidId=zdcS_5YsuzHu;" vertex="1" parent="1">
          <mxGeometry x="-70" y="226" width="120" height="90" as="geometry" />
        </mxCell>
        <mxCell id="Vm0NTs8RJYQJ-9ndtkTR-50" value="" style="html=1;overflow=block;blockSpacing=1;whiteSpace=wrap;ellipse;fontSize=13;spacing=0;strokeColor=#unset;rounded=1;absoluteArcSize=1;arcSize=9;fillColor=#unset;strokeWidth=NaN;lucidId=mecSIqeCl7Q~;" vertex="1" parent="1">
          <mxGeometry x="-416" y="210" width="45" height="45" as="geometry" />
        </mxCell>
        <mxCell id="Vm0NTs8RJYQJ-9ndtkTR-51" value="" style="html=1;jettySize=18;whiteSpace=wrap;fontSize=13;strokeColor=#3a414a;strokeOpacity=100;strokeWidth=0.8;rounded=1;arcSize=12;edgeStyle=orthogonalEdgeStyle;startArrow=none;endArrow=block;endFill=1;exitX=0.5;exitY=1.021;exitPerimeter=0;entryX=0.5;entryY=-0.017;entryPerimeter=0;lucidId=MecSACMptSeD;" edge="1" parent="1" source="Vm0NTs8RJYQJ-9ndtkTR-33" target="Vm0NTs8RJYQJ-9ndtkTR-50">
          <mxGeometry width="100" height="100" relative="1" as="geometry">
            <Array as="points" />
          </mxGeometry>
        </mxCell>
        <mxCell id="Vm0NTs8RJYQJ-9ndtkTR-52" value="" style="html=1;jettySize=18;whiteSpace=wrap;fontSize=13;strokeColor=#3a414a;strokeOpacity=100;strokeWidth=0.8;rounded=1;arcSize=12;edgeStyle=orthogonalEdgeStyle;startArrow=none;endArrow=block;endFill=1;exitX=0.61;exitY=1.021;exitPerimeter=0;entryX=0.851;entryY=0.123;entryPerimeter=0;lucidId=WecSRI1ZPvf6;" edge="1" parent="1" source="Vm0NTs8RJYQJ-9ndtkTR-33" target="Vm0NTs8RJYQJ-9ndtkTR-50">
          <mxGeometry width="100" height="100" relative="1" as="geometry">
            <Array as="points" />
          </mxGeometry>
        </mxCell>
        <mxCell id="Vm0NTs8RJYQJ-9ndtkTR-53" value="" style="html=1;jettySize=18;whiteSpace=wrap;fontSize=13;strokeColor=#3a414a;strokeOpacity=100;strokeWidth=0.8;rounded=1;arcSize=12;edgeStyle=orthogonalEdgeStyle;startArrow=none;endArrow=block;endFill=1;exitX=0.5;exitY=1.017;exitPerimeter=0;entryX=0.5;entryY=-0.021;entryPerimeter=0;lucidId=ofcSEcDCbg9C;" edge="1" parent="1" source="Vm0NTs8RJYQJ-9ndtkTR-50" target="Vm0NTs8RJYQJ-9ndtkTR-54">
          <mxGeometry width="100" height="100" relative="1" as="geometry">
            <Array as="points" />
          </mxGeometry>
        </mxCell>
        <mxCell id="Vm0NTs8RJYQJ-9ndtkTR-54" value="Loction" style="html=1;overflow=block;blockSpacing=1;whiteSpace=wrap;fontSize=21.7;fontStyle=1;spacing=3.8;strokeColor=#unset;fillOpacity=100;rounded=1;absoluteArcSize=1;arcSize=9;fillColor=#fc9432;strokeWidth=3.8;lucidId=BfcSjeGFZSBU;" vertex="1" parent="1">
          <mxGeometry x="-525" y="420" width="143" height="90" as="geometry" />
        </mxCell>
        <mxCell id="Vm0NTs8RJYQJ-9ndtkTR-56" value="&lt;span style=&quot;font-size: 20px;&quot;&gt;&lt;u&gt;&lt;b&gt;LocationID&lt;/b&gt;&lt;/u&gt;&lt;/span&gt;" style="html=1;overflow=block;blockSpacing=1;whiteSpace=wrap;ellipse;fontSize=13;spacing=3.8;strokeColor=#unset;fillOpacity=100;rounded=1;absoluteArcSize=1;arcSize=9;fillColor=#ff80df;strokeWidth=3;lucidId=jgcSdZYEXkRP;" vertex="1" parent="1">
          <mxGeometry x="-680" y="340" width="120" height="90" as="geometry" />
        </mxCell>
        <mxCell id="Vm0NTs8RJYQJ-9ndtkTR-57" value="" style="html=1;jettySize=18;whiteSpace=wrap;fontSize=13;strokeColor=#3a414a;strokeOpacity=100;strokeWidth=0.8;rounded=1;arcSize=12;edgeStyle=orthogonalEdgeStyle;startArrow=none;endArrow=block;endFill=1;exitX=-0.013;exitY=0.5;exitPerimeter=0;entryX=1.013;entryY=0.5;entryPerimeter=0;lucidId=mgcSI3pbHQ-h;" edge="1" parent="1" source="Vm0NTs8RJYQJ-9ndtkTR-33" target="Vm0NTs8RJYQJ-9ndtkTR-58">
          <mxGeometry width="100" height="100" relative="1" as="geometry">
            <Array as="points" />
          </mxGeometry>
        </mxCell>
        <mxCell id="Vm0NTs8RJYQJ-9ndtkTR-58" value="CustomID" style="html=1;overflow=block;blockSpacing=1;whiteSpace=wrap;ellipse;fontSize=20;fontStyle=5;spacing=3.8;strokeColor=#unset;fillOpacity=100;rounded=1;absoluteArcSize=1;arcSize=9;fillColor=#ff80df;strokeWidth=3;lucidId=ngcS6lekjzUb;" vertex="1" parent="1">
          <mxGeometry x="-645" y="45" width="120" height="90" as="geometry" />
        </mxCell>
        <mxCell id="Vm0NTs8RJYQJ-9ndtkTR-61" value="Flight" style="html=1;overflow=block;blockSpacing=1;whiteSpace=wrap;fontSize=21.7;fontStyle=1;spacing=3.8;strokeColor=#unset;fillOpacity=100;rounded=1;absoluteArcSize=1;arcSize=9;fillColor=#fc9432;strokeWidth=3.8;lucidId=EicSwD~iphg0;" vertex="1" parent="1">
          <mxGeometry x="-425" y="620" width="143" height="90" as="geometry" />
        </mxCell>
        <mxCell id="Vm0NTs8RJYQJ-9ndtkTR-62" value="Hotel" style="html=1;overflow=block;blockSpacing=1;whiteSpace=wrap;fontSize=21.7;fontStyle=1;spacing=3.8;strokeColor=#unset;fillOpacity=100;rounded=1;absoluteArcSize=1;arcSize=9;fillColor=#fc9432;strokeWidth=3.8;lucidId=GicSe4n60r5L;" vertex="1" parent="1">
          <mxGeometry x="-210" y="848" width="143" height="90" as="geometry" />
        </mxCell>
        <mxCell id="Vm0NTs8RJYQJ-9ndtkTR-65" value="&lt;b&gt;&lt;u&gt;&lt;font style=&quot;font-size: 20px;&quot;&gt;LName&lt;/font&gt;&lt;/u&gt;&lt;/b&gt;" style="html=1;overflow=block;blockSpacing=1;whiteSpace=wrap;ellipse;fontSize=13;spacing=3.8;strokeColor=#unset;fillOpacity=100;rounded=1;absoluteArcSize=1;arcSize=9;fillColor=#ff80df;strokeWidth=3;lucidId=PdcSS04874gt;" vertex="1" parent="1">
          <mxGeometry x="-720" y="440" width="120" height="90" as="geometry" />
        </mxCell>
        <mxCell id="Vm0NTs8RJYQJ-9ndtkTR-66" value="" style="endArrow=none;html=1;rounded=0;" edge="1" parent="1" source="Vm0NTs8RJYQJ-9ndtkTR-54" target="Vm0NTs8RJYQJ-9ndtkTR-56">
          <mxGeometry relative="1" as="geometry">
            <mxPoint x="-420" y="470" as="sourcePoint" />
            <mxPoint x="-290" y="463.75" as="targetPoint" />
          </mxGeometry>
        </mxCell>
        <mxCell id="Vm0NTs8RJYQJ-9ndtkTR-68" value="" style="endArrow=none;html=1;rounded=0;" edge="1" parent="1" source="Vm0NTs8RJYQJ-9ndtkTR-54" target="Vm0NTs8RJYQJ-9ndtkTR-65">
          <mxGeometry relative="1" as="geometry">
            <mxPoint x="-400" y="490" as="sourcePoint" />
            <mxPoint x="-240" y="490" as="targetPoint" />
          </mxGeometry>
        </mxCell>
        <mxCell id="Vm0NTs8RJYQJ-9ndtkTR-70" value="&lt;font style=&quot;font-size: 18px;&quot;&gt;&lt;b&gt;&lt;u&gt;HotelID&lt;/u&gt;&lt;/b&gt;&lt;/font&gt;" style="html=1;overflow=block;blockSpacing=1;whiteSpace=wrap;ellipse;fontSize=13;spacing=3.8;strokeColor=#unset;fillOpacity=100;rounded=1;absoluteArcSize=1;arcSize=9;fillColor=#ff80df;strokeWidth=3;lucidId=PdcSS04874gt;" vertex="1" parent="1">
          <mxGeometry x="-282" y="980" width="120" height="90" as="geometry" />
        </mxCell>
        <mxCell id="Vm0NTs8RJYQJ-9ndtkTR-73" value="Price" style="html=1;overflow=block;blockSpacing=1;whiteSpace=wrap;ellipse;fontSize=20;fontStyle=1;spacing=3.8;strokeColor=#unset;fillOpacity=100;rounded=1;absoluteArcSize=1;arcSize=9;fillColor=#ff80df;strokeWidth=3;lucidId=GgcSaqkLiSj-;" vertex="1" parent="1">
          <mxGeometry x="-201.5" y="185.5" width="126" height="94" as="geometry" />
        </mxCell>
        <mxCell id="Vm0NTs8RJYQJ-9ndtkTR-74" value="" style="endArrow=none;html=1;rounded=0;" edge="1" parent="1" source="Vm0NTs8RJYQJ-9ndtkTR-34" target="Vm0NTs8RJYQJ-9ndtkTR-73">
          <mxGeometry relative="1" as="geometry">
            <mxPoint x="-250" y="-220" as="sourcePoint" />
            <mxPoint x="-90" y="-220" as="targetPoint" />
          </mxGeometry>
        </mxCell>
        <mxCell id="Vm0NTs8RJYQJ-9ndtkTR-76" value="&lt;font style=&quot;font-size: 18px;&quot;&gt;&lt;u&gt;&lt;b&gt;FlightID&lt;/b&gt;&lt;/u&gt;&lt;/font&gt;" style="html=1;overflow=block;blockSpacing=1;whiteSpace=wrap;ellipse;fontSize=13;spacing=3.8;strokeColor=#unset;fillOpacity=100;rounded=1;absoluteArcSize=1;arcSize=9;fillColor=#ff80df;strokeWidth=3;lucidId=PdcSS04874gt;" vertex="1" parent="1">
          <mxGeometry x="-600" y="730" width="120" height="90" as="geometry" />
        </mxCell>
        <mxCell id="Vm0NTs8RJYQJ-9ndtkTR-77" value="ArrivalTime" style="html=1;overflow=block;blockSpacing=1;whiteSpace=wrap;ellipse;fontSize=20;fontStyle=1;spacing=3.8;strokeColor=#unset;fillOpacity=100;rounded=1;absoluteArcSize=1;arcSize=9;fillColor=#ff80df;strokeWidth=3;lucidId=GgcSaqkLiSj-;" vertex="1" parent="1">
          <mxGeometry x="-497" y="826" width="126" height="94" as="geometry" />
        </mxCell>
        <mxCell id="Vm0NTs8RJYQJ-9ndtkTR-78" value="DepartureTime&amp;nbsp;" style="html=1;overflow=block;blockSpacing=1;whiteSpace=wrap;ellipse;fontSize=20;fontStyle=1;spacing=3.8;strokeColor=#unset;fillOpacity=100;rounded=1;absoluteArcSize=1;arcSize=9;fillColor=#ff80df;strokeWidth=3;lucidId=GgcSaqkLiSj-;" vertex="1" parent="1">
          <mxGeometry x="-700" y="910" width="176" height="90" as="geometry" />
        </mxCell>
        <mxCell id="Vm0NTs8RJYQJ-9ndtkTR-80" value="&lt;u&gt;Name&lt;/u&gt;" style="html=1;overflow=block;blockSpacing=1;whiteSpace=wrap;ellipse;fontSize=20;fontStyle=1;spacing=3.8;strokeColor=#unset;fillOpacity=100;rounded=1;absoluteArcSize=1;arcSize=9;fillColor=#ff80df;strokeWidth=3;lucidId=GgcSaqkLiSj-;" vertex="1" parent="1">
          <mxGeometry x="-150" y="990" width="126" height="94" as="geometry" />
        </mxCell>
        <mxCell id="Vm0NTs8RJYQJ-9ndtkTR-81" value="Address" style="html=1;overflow=block;blockSpacing=1;whiteSpace=wrap;ellipse;fontSize=20;fontStyle=1;spacing=3.8;strokeColor=#unset;fillOpacity=100;rounded=1;absoluteArcSize=1;arcSize=9;fillColor=#ff80df;strokeWidth=3;lucidId=GgcSaqkLiSj-;" vertex="1" parent="1">
          <mxGeometry x="-418.5" y="938" width="130" height="94" as="geometry" />
        </mxCell>
        <mxCell id="Vm0NTs8RJYQJ-9ndtkTR-86" value="" style="endArrow=none;html=1;rounded=0;exitX=0.5;exitY=1;exitDx=0;exitDy=0;entryX=0;entryY=0.5;entryDx=0;entryDy=0;" edge="1" parent="1" source="Vm0NTs8RJYQJ-9ndtkTR-50" target="Vm0NTs8RJYQJ-9ndtkTR-62">
          <mxGeometry relative="1" as="geometry">
            <mxPoint x="-130" y="530" as="sourcePoint" />
            <mxPoint x="30" y="530" as="targetPoint" />
          </mxGeometry>
        </mxCell>
        <mxCell id="Vm0NTs8RJYQJ-9ndtkTR-87" value="" style="endArrow=none;html=1;rounded=0;" edge="1" parent="1" source="Vm0NTs8RJYQJ-9ndtkTR-76" target="Vm0NTs8RJYQJ-9ndtkTR-61">
          <mxGeometry relative="1" as="geometry">
            <mxPoint x="-560" y="720" as="sourcePoint" />
            <mxPoint x="-400" y="720" as="targetPoint" />
          </mxGeometry>
        </mxCell>
        <mxCell id="Vm0NTs8RJYQJ-9ndtkTR-88" value="" style="endArrow=none;html=1;rounded=0;exitX=0.373;exitY=0.056;exitDx=0;exitDy=0;exitPerimeter=0;" edge="1" parent="1" source="Vm0NTs8RJYQJ-9ndtkTR-77" target="Vm0NTs8RJYQJ-9ndtkTR-61">
          <mxGeometry relative="1" as="geometry">
            <mxPoint x="-480" y="775" as="sourcePoint" />
            <mxPoint x="-320" y="775" as="targetPoint" />
          </mxGeometry>
        </mxCell>
        <mxCell id="Vm0NTs8RJYQJ-9ndtkTR-89" value="" style="endArrow=none;html=1;rounded=0;" edge="1" parent="1" source="Vm0NTs8RJYQJ-9ndtkTR-61" target="Vm0NTs8RJYQJ-9ndtkTR-78">
          <mxGeometry relative="1" as="geometry">
            <mxPoint x="-340" y="770" as="sourcePoint" />
            <mxPoint x="-180" y="770" as="targetPoint" />
          </mxGeometry>
        </mxCell>
        <mxCell id="Vm0NTs8RJYQJ-9ndtkTR-90" value="" style="endArrow=none;html=1;rounded=0;exitX=0.5;exitY=0;exitDx=0;exitDy=0;entryX=0.5;entryY=1;entryDx=0;entryDy=0;" edge="1" parent="1" source="Vm0NTs8RJYQJ-9ndtkTR-61" target="Vm0NTs8RJYQJ-9ndtkTR-50">
          <mxGeometry relative="1" as="geometry">
            <mxPoint x="-390" y="570" as="sourcePoint" />
            <mxPoint x="-230" y="570" as="targetPoint" />
          </mxGeometry>
        </mxCell>
        <mxCell id="Vm0NTs8RJYQJ-9ndtkTR-92" value="" style="endArrow=none;html=1;rounded=0;" edge="1" parent="1" source="Vm0NTs8RJYQJ-9ndtkTR-62" target="Vm0NTs8RJYQJ-9ndtkTR-70">
          <mxGeometry relative="1" as="geometry">
            <mxPoint x="-20" y="630" as="sourcePoint" />
            <mxPoint x="140" y="630" as="targetPoint" />
          </mxGeometry>
        </mxCell>
        <mxCell id="Vm0NTs8RJYQJ-9ndtkTR-93" value="" style="endArrow=none;html=1;rounded=0;" edge="1" parent="1" source="Vm0NTs8RJYQJ-9ndtkTR-80" target="Vm0NTs8RJYQJ-9ndtkTR-62">
          <mxGeometry relative="1" as="geometry">
            <mxPoint x="-240" y="670" as="sourcePoint" />
            <mxPoint x="-80" y="670" as="targetPoint" />
          </mxGeometry>
        </mxCell>
        <mxCell id="Vm0NTs8RJYQJ-9ndtkTR-94" value="" style="endArrow=none;html=1;rounded=0;" edge="1" parent="1" source="Vm0NTs8RJYQJ-9ndtkTR-81" target="Vm0NTs8RJYQJ-9ndtkTR-62">
          <mxGeometry relative="1" as="geometry">
            <mxPoint x="-40" y="730" as="sourcePoint" />
            <mxPoint x="120" y="730" as="targetPoint" />
          </mxGeometry>
        </mxCell>
        <mxCell id="Vm0NTs8RJYQJ-9ndtkTR-95" value="CarRantel" style="html=1;overflow=block;blockSpacing=1;whiteSpace=wrap;fontSize=21.7;fontStyle=1;spacing=3.8;strokeColor=#unset;fillOpacity=100;rounded=1;absoluteArcSize=1;arcSize=9;fillColor=#fc9432;strokeWidth=3.8;lucidId=GicSe4n60r5L;" vertex="1" parent="1">
          <mxGeometry x="-98.5" y="460" width="143" height="90" as="geometry" />
        </mxCell>
        <mxCell id="Vm0NTs8RJYQJ-9ndtkTR-96" value="Activity" style="html=1;overflow=block;blockSpacing=1;whiteSpace=wrap;fontSize=21.7;fontStyle=1;spacing=3.8;strokeColor=#unset;fillOpacity=100;rounded=1;absoluteArcSize=1;arcSize=9;fillColor=#fc9432;strokeWidth=3.8;lucidId=GicSe4n60r5L;" vertex="1" parent="1">
          <mxGeometry x="-143" y="700" width="143" height="90" as="geometry" />
        </mxCell>
        <mxCell id="Vm0NTs8RJYQJ-9ndtkTR-98" value="&lt;u&gt;ActivityID&lt;/u&gt;" style="html=1;overflow=block;blockSpacing=1;whiteSpace=wrap;ellipse;fontSize=20;fontStyle=1;spacing=3.8;strokeColor=#unset;fillOpacity=100;rounded=1;absoluteArcSize=1;arcSize=9;fillColor=#ff80df;strokeWidth=3;lucidId=GgcSaqkLiSj-;" vertex="1" parent="1">
          <mxGeometry x="50" y="790" width="130" height="94" as="geometry" />
        </mxCell>
        <mxCell id="Vm0NTs8RJYQJ-9ndtkTR-99" value="&lt;u&gt;CarRentalID&lt;/u&gt;" style="html=1;overflow=block;blockSpacing=1;whiteSpace=wrap;ellipse;fontSize=20;fontStyle=1;spacing=3.8;strokeColor=#unset;fillOpacity=100;rounded=1;absoluteArcSize=1;arcSize=9;fillColor=#ff80df;strokeWidth=3;lucidId=GgcSaqkLiSj-;" vertex="1" parent="1">
          <mxGeometry x="195" y="616" width="130" height="94" as="geometry" />
        </mxCell>
        <mxCell id="Vm0NTs8RJYQJ-9ndtkTR-100" value="&lt;u&gt;TourID&lt;/u&gt;" style="html=1;overflow=block;blockSpacing=1;whiteSpace=wrap;ellipse;fontSize=20;fontStyle=1;spacing=3.8;strokeColor=#unset;fillOpacity=100;rounded=1;absoluteArcSize=1;arcSize=9;fillColor=#ff80df;strokeWidth=3;lucidId=GgcSaqkLiSj-;" vertex="1" parent="1">
          <mxGeometry x="195" y="396" width="130" height="94" as="geometry" />
        </mxCell>
        <mxCell id="Vm0NTs8RJYQJ-9ndtkTR-102" value="" style="endArrow=none;html=1;rounded=0;" edge="1" parent="1" target="Vm0NTs8RJYQJ-9ndtkTR-96">
          <mxGeometry relative="1" as="geometry">
            <mxPoint x="-400" y="240" as="sourcePoint" />
            <mxPoint x="-240" y="240" as="targetPoint" />
          </mxGeometry>
        </mxCell>
        <mxCell id="Vm0NTs8RJYQJ-9ndtkTR-103" value="" style="endArrow=none;html=1;rounded=0;" edge="1" parent="1" source="Vm0NTs8RJYQJ-9ndtkTR-96" target="Vm0NTs8RJYQJ-9ndtkTR-98">
          <mxGeometry relative="1" as="geometry">
            <mxPoint x="-50" y="730" as="sourcePoint" />
            <mxPoint x="90" y="750" as="targetPoint" />
          </mxGeometry>
        </mxCell>
        <mxCell id="Vm0NTs8RJYQJ-9ndtkTR-104" value="Availability" style="html=1;overflow=block;blockSpacing=1;whiteSpace=wrap;ellipse;fontSize=20;fontStyle=1;spacing=3.8;strokeColor=#unset;fillOpacity=100;rounded=1;absoluteArcSize=1;arcSize=9;fillColor=#ff80df;strokeWidth=3;lucidId=GgcSaqkLiSj-;" vertex="1" parent="1">
          <mxGeometry x="-24" y="990" width="126" height="94" as="geometry" />
        </mxCell>
        <mxCell id="Vm0NTs8RJYQJ-9ndtkTR-105" value="Availability" style="html=1;overflow=block;blockSpacing=1;whiteSpace=wrap;ellipse;fontSize=20;fontStyle=1;spacing=3.8;strokeColor=#unset;fillOpacity=100;rounded=1;absoluteArcSize=1;arcSize=9;fillColor=#ff80df;strokeWidth=3;lucidId=GgcSaqkLiSj-;" vertex="1" parent="1">
          <mxGeometry x="-750" y="770" width="126" height="94" as="geometry" />
        </mxCell>
        <mxCell id="Vm0NTs8RJYQJ-9ndtkTR-106" value="Availability" style="html=1;overflow=block;blockSpacing=1;whiteSpace=wrap;ellipse;fontSize=20;fontStyle=1;spacing=3.8;strokeColor=#unset;fillOpacity=100;rounded=1;absoluteArcSize=1;arcSize=9;fillColor=#ff80df;strokeWidth=3;lucidId=GgcSaqkLiSj-;" vertex="1" parent="1">
          <mxGeometry x="30" y="660" width="126" height="94" as="geometry" />
        </mxCell>
        <mxCell id="Vm0NTs8RJYQJ-9ndtkTR-108" value="" style="endArrow=none;html=1;rounded=0;" edge="1" parent="1" source="Vm0NTs8RJYQJ-9ndtkTR-62" target="Vm0NTs8RJYQJ-9ndtkTR-104">
          <mxGeometry relative="1" as="geometry">
            <mxPoint x="-120" y="910" as="sourcePoint" />
            <mxPoint x="40" y="910" as="targetPoint" />
          </mxGeometry>
        </mxCell>
        <mxCell id="Vm0NTs8RJYQJ-9ndtkTR-109" value="" style="endArrow=none;html=1;rounded=0;" edge="1" parent="1" source="Vm0NTs8RJYQJ-9ndtkTR-105" target="Vm0NTs8RJYQJ-9ndtkTR-61">
          <mxGeometry relative="1" as="geometry">
            <mxPoint x="-570" y="670" as="sourcePoint" />
            <mxPoint x="-410" y="670" as="targetPoint" />
          </mxGeometry>
        </mxCell>
        <mxCell id="Vm0NTs8RJYQJ-9ndtkTR-110" value="" style="endArrow=none;html=1;rounded=0;" edge="1" parent="1" source="Vm0NTs8RJYQJ-9ndtkTR-96" target="Vm0NTs8RJYQJ-9ndtkTR-106">
          <mxGeometry relative="1" as="geometry">
            <mxPoint x="30" y="670" as="sourcePoint" />
            <mxPoint x="100" y="747" as="targetPoint" />
          </mxGeometry>
        </mxCell>
        <mxCell id="Vm0NTs8RJYQJ-9ndtkTR-111" value="PricePerDay" style="html=1;overflow=block;blockSpacing=1;whiteSpace=wrap;ellipse;fontSize=20;fontStyle=1;spacing=3.8;strokeColor=#unset;fillOpacity=100;rounded=1;absoluteArcSize=1;arcSize=9;fillColor=#ff80df;strokeWidth=3;lucidId=GgcSaqkLiSj-;" vertex="1" parent="1">
          <mxGeometry x="80" y="920" width="126" height="94" as="geometry" />
        </mxCell>
        <mxCell id="Vm0NTs8RJYQJ-9ndtkTR-112" value="TicketPrice" style="html=1;overflow=block;blockSpacing=1;whiteSpace=wrap;ellipse;fontSize=20;fontStyle=1;spacing=3.8;strokeColor=#unset;fillOpacity=100;rounded=1;absoluteArcSize=1;arcSize=9;fillColor=#ff80df;strokeWidth=3;lucidId=GgcSaqkLiSj-;" vertex="1" parent="1">
          <mxGeometry x="-730" y="650" width="126" height="94" as="geometry" />
        </mxCell>
        <mxCell id="Vm0NTs8RJYQJ-9ndtkTR-113" value="" style="endArrow=none;html=1;rounded=0;" edge="1" parent="1" source="Vm0NTs8RJYQJ-9ndtkTR-112" target="Vm0NTs8RJYQJ-9ndtkTR-61">
          <mxGeometry relative="1" as="geometry">
            <mxPoint x="-250" y="460" as="sourcePoint" />
            <mxPoint x="-90" y="460" as="targetPoint" />
          </mxGeometry>
        </mxCell>
        <mxCell id="Vm0NTs8RJYQJ-9ndtkTR-114" value="" style="endArrow=none;html=1;rounded=0;exitX=0.5;exitY=1;exitDx=0;exitDy=0;" edge="1" parent="1" source="Vm0NTs8RJYQJ-9ndtkTR-62" target="Vm0NTs8RJYQJ-9ndtkTR-111">
          <mxGeometry relative="1" as="geometry">
            <mxPoint x="-280" y="460" as="sourcePoint" />
            <mxPoint x="-120" y="460" as="targetPoint" />
          </mxGeometry>
        </mxCell>
        <mxCell id="Vm0NTs8RJYQJ-9ndtkTR-115" value="ActivityPrice" style="html=1;overflow=block;blockSpacing=1;whiteSpace=wrap;ellipse;fontSize=20;fontStyle=1;spacing=3.8;strokeColor=#unset;fillOpacity=100;rounded=1;absoluteArcSize=1;arcSize=9;fillColor=#ff80df;strokeWidth=3;lucidId=GgcSaqkLiSj-;" vertex="1" parent="1">
          <mxGeometry x="-90" y="590" width="126" height="94" as="geometry" />
        </mxCell>
        <mxCell id="Vm0NTs8RJYQJ-9ndtkTR-116" value="" style="endArrow=none;html=1;rounded=0;" edge="1" parent="1" source="Vm0NTs8RJYQJ-9ndtkTR-96" target="Vm0NTs8RJYQJ-9ndtkTR-115">
          <mxGeometry relative="1" as="geometry">
            <mxPoint x="-110" y="580" as="sourcePoint" />
            <mxPoint x="50" y="580" as="targetPoint" />
          </mxGeometry>
        </mxCell>
        <mxCell id="Vm0NTs8RJYQJ-9ndtkTR-117" value="" style="endArrow=none;html=1;rounded=0;" edge="1" parent="1" source="Vm0NTs8RJYQJ-9ndtkTR-99" target="Vm0NTs8RJYQJ-9ndtkTR-95">
          <mxGeometry relative="1" as="geometry">
            <mxPoint x="-60" y="580" as="sourcePoint" />
            <mxPoint x="231" y="570" as="targetPoint" />
          </mxGeometry>
        </mxCell>
        <mxCell id="Vm0NTs8RJYQJ-9ndtkTR-118" value="" style="endArrow=none;html=1;rounded=0;" edge="1" parent="1" target="Vm0NTs8RJYQJ-9ndtkTR-95">
          <mxGeometry relative="1" as="geometry">
            <mxPoint x="-400" y="240" as="sourcePoint" />
            <mxPoint x="-10" y="500" as="targetPoint" />
          </mxGeometry>
        </mxCell>
        <mxCell id="Vm0NTs8RJYQJ-9ndtkTR-121" value="Availability" style="html=1;overflow=block;blockSpacing=1;whiteSpace=wrap;ellipse;fontSize=20;fontStyle=1;spacing=3.8;strokeColor=#unset;fillOpacity=100;rounded=1;absoluteArcSize=1;arcSize=9;fillColor=#ff80df;strokeWidth=3;lucidId=GgcSaqkLiSj-;" vertex="1" parent="1">
          <mxGeometry x="119" y="490" width="126" height="94" as="geometry" />
        </mxCell>
        <mxCell id="Vm0NTs8RJYQJ-9ndtkTR-122" value="" style="endArrow=none;html=1;rounded=0;entryX=0;entryY=0.5;entryDx=0;entryDy=0;" edge="1" parent="1" source="Vm0NTs8RJYQJ-9ndtkTR-95" target="Vm0NTs8RJYQJ-9ndtkTR-121">
          <mxGeometry relative="1" as="geometry">
            <mxPoint x="-150" y="600" as="sourcePoint" />
            <mxPoint x="140" y="390" as="targetPoint" />
          </mxGeometry>
        </mxCell>
        <mxCell id="Vm0NTs8RJYQJ-9ndtkTR-124" value="TourGuide" style="html=1;overflow=block;blockSpacing=1;whiteSpace=wrap;fontSize=21.7;fontStyle=1;spacing=3.8;strokeColor=#unset;fillOpacity=100;rounded=1;absoluteArcSize=1;arcSize=9;fillColor=#fc9432;strokeWidth=3.8;lucidId=c9bSj~b5tVVE;" vertex="1" parent="1">
          <mxGeometry x="-24" y="360" width="143" height="90" as="geometry" />
        </mxCell>
        <mxCell id="Vm0NTs8RJYQJ-9ndtkTR-125" value="" style="endArrow=none;html=1;rounded=0;exitX=0;exitY=0.5;exitDx=0;exitDy=0;" edge="1" parent="1" source="Vm0NTs8RJYQJ-9ndtkTR-50" target="Vm0NTs8RJYQJ-9ndtkTR-124">
          <mxGeometry relative="1" as="geometry">
            <mxPoint x="-140" y="470" as="sourcePoint" />
            <mxPoint x="20" y="470" as="targetPoint" />
          </mxGeometry>
        </mxCell>
        <mxCell id="Vm0NTs8RJYQJ-9ndtkTR-127" value="" style="endArrow=none;html=1;rounded=0;" edge="1" parent="1" source="Vm0NTs8RJYQJ-9ndtkTR-124" target="Vm0NTs8RJYQJ-9ndtkTR-100">
          <mxGeometry relative="1" as="geometry">
            <mxPoint y="460" as="sourcePoint" />
            <mxPoint x="160" y="460" as="targetPoint" />
          </mxGeometry>
        </mxCell>
        <mxCell id="Vm0NTs8RJYQJ-9ndtkTR-128" value="TourGuidePrice" style="html=1;overflow=block;blockSpacing=1;whiteSpace=wrap;ellipse;fontSize=20;fontStyle=1;spacing=3.8;strokeColor=#unset;fillOpacity=100;rounded=1;absoluteArcSize=1;arcSize=9;fillColor=#ff80df;strokeWidth=3;lucidId=GgcSaqkLiSj-;" vertex="1" parent="1">
          <mxGeometry x="240" y="316" width="208" height="80" as="geometry" />
        </mxCell>
        <mxCell id="Vm0NTs8RJYQJ-9ndtkTR-130" value="" style="endArrow=none;html=1;rounded=0;" edge="1" parent="1" source="Vm0NTs8RJYQJ-9ndtkTR-124" target="Vm0NTs8RJYQJ-9ndtkTR-128">
          <mxGeometry relative="1" as="geometry">
            <mxPoint x="160" y="430" as="sourcePoint" />
            <mxPoint x="320" y="430" as="targetPoint" />
          </mxGeometry>
        </mxCell>
        <mxCell id="Vm0NTs8RJYQJ-9ndtkTR-131" value="&lt;span style=&quot;font-size: 20px;&quot;&gt;&lt;b&gt;&lt;u&gt;Tname&lt;/u&gt;&lt;/b&gt;&lt;/span&gt;" style="html=1;overflow=block;blockSpacing=1;whiteSpace=wrap;ellipse;fontSize=13;spacing=3.8;strokeColor=#unset;fillOpacity=100;rounded=1;absoluteArcSize=1;arcSize=9;fillColor=#ff80df;strokeWidth=3;lucidId=PdcSS04874gt;" vertex="1" parent="1">
          <mxGeometry x="102" y="270" width="120" height="90" as="geometry" />
        </mxCell>
        <mxCell id="Vm0NTs8RJYQJ-9ndtkTR-132" value="" style="endArrow=none;html=1;rounded=0;" edge="1" parent="1" source="Vm0NTs8RJYQJ-9ndtkTR-124" target="Vm0NTs8RJYQJ-9ndtkTR-131">
          <mxGeometry relative="1" as="geometry">
            <mxPoint x="-200" y="430" as="sourcePoint" />
            <mxPoint x="-40" y="430" as="targetPoint" />
          </mxGeometry>
        </mxCell>
        <mxCell id="Vm0NTs8RJYQJ-9ndtkTR-133" value="&lt;font style=&quot;font-size: 18px;&quot;&gt;Method Type&lt;/font&gt;" style="ellipse;shape=doubleEllipse;margin=3;whiteSpace=wrap;html=1;align=center;fillColor=#009900;" vertex="1" parent="1">
          <mxGeometry x="855" y="-435" width="110" height="90" as="geometry" />
        </mxCell>
        <mxCell id="Vm0NTs8RJYQJ-9ndtkTR-134" value="&lt;font style=&quot;font-size: 18px;&quot;&gt;Discount Coupon&lt;/font&gt;" style="shape=ext;margin=3;double=1;whiteSpace=wrap;html=1;align=center;fillColor=#F19C99;" vertex="1" parent="1">
          <mxGeometry x="810" y="694" width="143" height="60" as="geometry" />
        </mxCell>
        <mxCell id="Vm0NTs8RJYQJ-9ndtkTR-140" value="Description" style="html=1;overflow=block;blockSpacing=1;whiteSpace=wrap;ellipse;fontSize=20;fontStyle=1;spacing=3.8;strokeColor=#unset;fillOpacity=100;rounded=1;absoluteArcSize=1;arcSize=9;fillColor=#ff80df;strokeWidth=3;lucidId=GgcSaqkLiSj-;" vertex="1" parent="1">
          <mxGeometry x="-260" y="80" width="126" height="94" as="geometry" />
        </mxCell>
        <mxCell id="Vm0NTs8RJYQJ-9ndtkTR-141" value="" style="endArrow=none;html=1;rounded=0;exitX=0.5;exitY=1;exitDx=0;exitDy=0;" edge="1" parent="1" source="Vm0NTs8RJYQJ-9ndtkTR-140" target="Vm0NTs8RJYQJ-9ndtkTR-34">
          <mxGeometry relative="1" as="geometry">
            <mxPoint x="-200" y="410" as="sourcePoint" />
            <mxPoint x="-40" y="410" as="targetPoint" />
          </mxGeometry>
        </mxCell>
        <mxCell id="Vm0NTs8RJYQJ-9ndtkTR-142" value="&lt;u&gt;PackageID&lt;/u&gt;" style="html=1;overflow=block;blockSpacing=1;whiteSpace=wrap;ellipse;fontSize=20;fontStyle=1;spacing=3.8;strokeColor=#unset;fillOpacity=100;rounded=1;absoluteArcSize=1;arcSize=9;fillColor=#ff80df;strokeWidth=3;lucidId=GgcSaqkLiSj-;" vertex="1" parent="1">
          <mxGeometry x="-60" y="-289" width="130" height="94" as="geometry" />
        </mxCell>
        <mxCell id="Vm0NTs8RJYQJ-9ndtkTR-143" value="" style="endArrow=none;html=1;rounded=0;" edge="1" parent="1" source="Vm0NTs8RJYQJ-9ndtkTR-142" target="Vm0NTs8RJYQJ-9ndtkTR-4">
          <mxGeometry relative="1" as="geometry">
            <mxPoint x="-200" y="410" as="sourcePoint" />
            <mxPoint x="-40" y="410" as="targetPoint" />
          </mxGeometry>
        </mxCell>
        <mxCell id="Vm0NTs8RJYQJ-9ndtkTR-144" value="CartID" style="html=1;overflow=block;blockSpacing=1;whiteSpace=wrap;ellipse;fontSize=20;fontStyle=5;spacing=3.8;strokeColor=#unset;fillOpacity=100;rounded=1;absoluteArcSize=1;arcSize=9;fillColor=#ff80df;strokeWidth=3;lucidId=zdcS_5YsuzHu;" vertex="1" parent="1">
          <mxGeometry x="170" y="160" width="120" height="90" as="geometry" />
        </mxCell>
        <mxCell id="Vm0NTs8RJYQJ-9ndtkTR-145" value="WishId" style="html=1;overflow=block;blockSpacing=1;whiteSpace=wrap;ellipse;fontSize=20;fontStyle=5;spacing=3.8;strokeColor=#unset;fillOpacity=100;rounded=1;absoluteArcSize=1;arcSize=9;fillColor=#ff80df;strokeWidth=3;lucidId=zdcS_5YsuzHu;" vertex="1" parent="1">
          <mxGeometry x="350" y="165" width="120" height="90" as="geometry" />
        </mxCell>
        <mxCell id="Vm0NTs8RJYQJ-9ndtkTR-146" value="" style="endArrow=none;html=1;rounded=0;exitX=0.5;exitY=1;exitDx=0;exitDy=0;" edge="1" parent="1" source="Vm0NTs8RJYQJ-9ndtkTR-40" target="Vm0NTs8RJYQJ-9ndtkTR-144">
          <mxGeometry relative="1" as="geometry">
            <mxPoint x="-60" y="210" as="sourcePoint" />
            <mxPoint x="100" y="210" as="targetPoint" />
          </mxGeometry>
        </mxCell>
        <mxCell id="Vm0NTs8RJYQJ-9ndtkTR-147" value="" style="endArrow=none;html=1;rounded=0;" edge="1" parent="1" source="Vm0NTs8RJYQJ-9ndtkTR-45" target="Vm0NTs8RJYQJ-9ndtkTR-145">
          <mxGeometry relative="1" as="geometry">
            <mxPoint x="-60" y="210" as="sourcePoint" />
            <mxPoint x="100" y="210" as="targetPoint" />
          </mxGeometry>
        </mxCell>
        <mxCell id="Vm0NTs8RJYQJ-9ndtkTR-149" value="&lt;font size=&quot;4&quot;&gt;Review&lt;/font&gt;" style="shape=ext;margin=3;double=1;whiteSpace=wrap;html=1;align=center;fillColor=#F19C99;" vertex="1" parent="1">
          <mxGeometry x="530" y="667" width="143" height="60" as="geometry" />
        </mxCell>
        <mxCell id="Vm0NTs8RJYQJ-9ndtkTR-151" value="&lt;font style=&quot;font-size: 18px;&quot;&gt;&lt;b&gt;Write&lt;/b&gt;&lt;/font&gt;" style="shape=rhombus;double=1;perimeter=rhombusPerimeter;whiteSpace=wrap;html=1;align=center;fillColor=#B266FF;" vertex="1" parent="1">
          <mxGeometry x="420" y="45" width="120" height="60" as="geometry" />
        </mxCell>
        <mxCell id="Vm0NTs8RJYQJ-9ndtkTR-157" value="&lt;font size=&quot;4&quot;&gt;&lt;b&gt;gets&lt;/b&gt;&lt;/font&gt;" style="shape=rhombus;double=1;perimeter=rhombusPerimeter;whiteSpace=wrap;html=1;align=center;fillColor=#CC99FF;" vertex="1" parent="1">
          <mxGeometry x="620" y="316" width="120" height="60" as="geometry" />
        </mxCell>
        <mxCell id="Vm0NTs8RJYQJ-9ndtkTR-163" value="&lt;span style=&quot;border-bottom: 1px dotted&quot;&gt;&lt;font style=&quot;font-size: 18px;&quot;&gt;&lt;b&gt;Code&lt;/b&gt;&lt;/font&gt;&lt;/span&gt;" style="ellipse;whiteSpace=wrap;html=1;align=center;fillColor=#99CCFF;" vertex="1" parent="1">
          <mxGeometry x="800" y="826" width="100" height="40" as="geometry" />
        </mxCell>
        <mxCell id="Vm0NTs8RJYQJ-9ndtkTR-164" value="" style="endArrow=none;html=1;rounded=0;" edge="1" parent="1" source="Vm0NTs8RJYQJ-9ndtkTR-134" target="Vm0NTs8RJYQJ-9ndtkTR-163">
          <mxGeometry relative="1" as="geometry">
            <mxPoint x="550" y="910" as="sourcePoint" />
            <mxPoint x="710" y="910" as="targetPoint" />
          </mxGeometry>
        </mxCell>
        <mxCell id="Vm0NTs8RJYQJ-9ndtkTR-166" value="Rate" style="html=1;overflow=block;blockSpacing=1;whiteSpace=wrap;ellipse;fontSize=20;fontStyle=1;spacing=3.8;strokeColor=#unset;fillOpacity=100;rounded=1;absoluteArcSize=1;arcSize=9;fillColor=#ff80df;strokeWidth=3;lucidId=GgcSaqkLiSj-;" vertex="1" parent="1">
          <mxGeometry x="384" y="799" width="126" height="94" as="geometry" />
        </mxCell>
        <mxCell id="Vm0NTs8RJYQJ-9ndtkTR-168" value="" style="endArrow=none;html=1;rounded=0;entryX=0.25;entryY=1;entryDx=0;entryDy=0;" edge="1" parent="1" source="Vm0NTs8RJYQJ-9ndtkTR-166" target="Vm0NTs8RJYQJ-9ndtkTR-149">
          <mxGeometry relative="1" as="geometry">
            <mxPoint x="250" y="530" as="sourcePoint" />
            <mxPoint x="410" y="530" as="targetPoint" />
          </mxGeometry>
        </mxCell>
        <mxCell id="Vm0NTs8RJYQJ-9ndtkTR-169" value="can" style="html=1;overflow=block;blockSpacing=1;whiteSpace=wrap;shape=rhombus;fontSize=20;fontStyle=1;spacing=3.8;strokeColor=#unset;fillOpacity=100;rounded=1;absoluteArcSize=1;arcSize=9;fillColor=#54c45e;strokeWidth=2.3;lucidId=t5bSBTf5RIRk;" vertex="1" parent="1">
          <mxGeometry x="750" y="69" width="120" height="105" as="geometry" />
        </mxCell>
        <mxCell id="Vm0NTs8RJYQJ-9ndtkTR-172" value="Search" style="html=1;overflow=block;blockSpacing=1;whiteSpace=wrap;fontSize=21.7;fontStyle=1;spacing=3.8;strokeColor=#unset;fillOpacity=100;rounded=1;absoluteArcSize=1;arcSize=9;fillColor=#fc9432;strokeWidth=3.8;lucidId=H3bSISB6gANE;" vertex="1" parent="1">
          <mxGeometry x="953" y="270" width="120" height="90" as="geometry" />
        </mxCell>
        <mxCell id="Vm0NTs8RJYQJ-9ndtkTR-173" value="Filter" style="html=1;overflow=block;blockSpacing=1;whiteSpace=wrap;ellipse;fontSize=20;fontStyle=1;spacing=3.8;strokeColor=#unset;fillOpacity=100;rounded=1;absoluteArcSize=1;arcSize=9;fillColor=#ff80df;strokeWidth=3;lucidId=GgcSaqkLiSj-;" vertex="1" parent="1">
          <mxGeometry x="1080" y="470" width="126" height="94" as="geometry" />
        </mxCell>
        <mxCell id="Vm0NTs8RJYQJ-9ndtkTR-174" value="&lt;u&gt;SearchID&lt;/u&gt;" style="html=1;overflow=block;blockSpacing=1;whiteSpace=wrap;ellipse;fontSize=20;fontStyle=1;spacing=3.8;strokeColor=#unset;fillOpacity=100;rounded=1;absoluteArcSize=1;arcSize=9;fillColor=#ff80df;strokeWidth=3;lucidId=GgcSaqkLiSj-;" vertex="1" parent="1">
          <mxGeometry x="920" y="436" width="126" height="94" as="geometry" />
        </mxCell>
        <mxCell id="Vm0NTs8RJYQJ-9ndtkTR-175" value="Sort" style="html=1;overflow=block;blockSpacing=1;whiteSpace=wrap;ellipse;fontSize=20;fontStyle=1;spacing=3.8;strokeColor=#unset;fillOpacity=100;rounded=1;absoluteArcSize=1;arcSize=9;fillColor=#ff80df;strokeWidth=3;lucidId=GgcSaqkLiSj-;" vertex="1" parent="1">
          <mxGeometry x="1140" y="279.5" width="126" height="94" as="geometry" />
        </mxCell>
        <mxCell id="Vm0NTs8RJYQJ-9ndtkTR-176" value="" style="endArrow=none;html=1;rounded=0;" edge="1" parent="1" source="Vm0NTs8RJYQJ-9ndtkTR-174" target="Vm0NTs8RJYQJ-9ndtkTR-172">
          <mxGeometry relative="1" as="geometry">
            <mxPoint x="700" y="310" as="sourcePoint" />
            <mxPoint x="860" y="310" as="targetPoint" />
          </mxGeometry>
        </mxCell>
        <mxCell id="Vm0NTs8RJYQJ-9ndtkTR-177" value="" style="endArrow=none;html=1;rounded=0;" edge="1" parent="1" source="Vm0NTs8RJYQJ-9ndtkTR-173" target="Vm0NTs8RJYQJ-9ndtkTR-172">
          <mxGeometry relative="1" as="geometry">
            <mxPoint x="700" y="310" as="sourcePoint" />
            <mxPoint x="860" y="310" as="targetPoint" />
          </mxGeometry>
        </mxCell>
        <mxCell id="Vm0NTs8RJYQJ-9ndtkTR-178" value="" style="endArrow=none;html=1;rounded=0;exitX=1;exitY=0.5;exitDx=0;exitDy=0;" edge="1" parent="1" source="Vm0NTs8RJYQJ-9ndtkTR-172" target="Vm0NTs8RJYQJ-9ndtkTR-175">
          <mxGeometry relative="1" as="geometry">
            <mxPoint x="1100" y="300" as="sourcePoint" />
            <mxPoint x="860" y="310" as="targetPoint" />
          </mxGeometry>
        </mxCell>
        <mxCell id="Vm0NTs8RJYQJ-9ndtkTR-180" value="" style="shape=link;html=1;rounded=0;entryX=0.5;entryY=1;entryDx=0;entryDy=0;" edge="1" parent="1" target="Vm0NTs8RJYQJ-9ndtkTR-151">
          <mxGeometry relative="1" as="geometry">
            <mxPoint x="540" y="660" as="sourcePoint" />
            <mxPoint x="380" y="540" as="targetPoint" />
          </mxGeometry>
        </mxCell>
        <mxCell id="Vm0NTs8RJYQJ-9ndtkTR-181" value="&lt;font style=&quot;font-size: 18px;&quot;&gt;N&lt;/font&gt;" style="resizable=0;html=1;whiteSpace=wrap;align=right;verticalAlign=bottom;" connectable="0" vertex="1" parent="Vm0NTs8RJYQJ-9ndtkTR-180">
          <mxGeometry x="1" relative="1" as="geometry">
            <mxPoint x="80" y="494" as="offset" />
          </mxGeometry>
        </mxCell>
        <mxCell id="Vm0NTs8RJYQJ-9ndtkTR-183" value="" style="endArrow=none;html=1;rounded=0;entryX=0.5;entryY=0;entryDx=0;entryDy=0;" edge="1" parent="1" target="Vm0NTs8RJYQJ-9ndtkTR-151">
          <mxGeometry relative="1" as="geometry">
            <mxPoint x="430" y="-230" as="sourcePoint" />
            <mxPoint x="510" y="410" as="targetPoint" />
          </mxGeometry>
        </mxCell>
        <mxCell id="Vm0NTs8RJYQJ-9ndtkTR-184" value="&lt;font style=&quot;font-size: 24px;&quot;&gt;1&lt;/font&gt;" style="resizable=0;html=1;whiteSpace=wrap;align=right;verticalAlign=bottom;" connectable="0" vertex="1" parent="Vm0NTs8RJYQJ-9ndtkTR-183">
          <mxGeometry x="1" relative="1" as="geometry">
            <mxPoint x="-32" y="-95" as="offset" />
          </mxGeometry>
        </mxCell>
        <mxCell id="Vm0NTs8RJYQJ-9ndtkTR-185" value="" style="shape=link;html=1;rounded=0;entryX=0.25;entryY=0;entryDx=0;entryDy=0;exitX=0.5;exitY=1;exitDx=0;exitDy=0;" edge="1" parent="1" source="Vm0NTs8RJYQJ-9ndtkTR-157" target="Vm0NTs8RJYQJ-9ndtkTR-134">
          <mxGeometry relative="1" as="geometry">
            <mxPoint x="610" y="300" as="sourcePoint" />
            <mxPoint x="770" y="300" as="targetPoint" />
          </mxGeometry>
        </mxCell>
        <mxCell id="Vm0NTs8RJYQJ-9ndtkTR-186" value="&lt;font style=&quot;font-size: 24px;&quot;&gt;1&lt;/font&gt;" style="resizable=0;html=1;whiteSpace=wrap;align=right;verticalAlign=bottom;" connectable="0" vertex="1" parent="Vm0NTs8RJYQJ-9ndtkTR-185">
          <mxGeometry x="1" relative="1" as="geometry">
            <mxPoint x="-36" y="-104" as="offset" />
          </mxGeometry>
        </mxCell>
        <mxCell id="Vm0NTs8RJYQJ-9ndtkTR-187" value="" style="endArrow=none;html=1;rounded=0;" edge="1" parent="1" source="Vm0NTs8RJYQJ-9ndtkTR-7">
          <mxGeometry relative="1" as="geometry">
            <mxPoint x="420" y="-100" as="sourcePoint" />
            <mxPoint x="680" y="310" as="targetPoint" />
          </mxGeometry>
        </mxCell>
        <mxCell id="Vm0NTs8RJYQJ-9ndtkTR-188" value="&lt;font style=&quot;font-size: 24px;&quot;&gt;1&lt;/font&gt;" style="resizable=0;html=1;whiteSpace=wrap;align=right;verticalAlign=bottom;" connectable="0" vertex="1" parent="Vm0NTs8RJYQJ-9ndtkTR-187">
          <mxGeometry x="1" relative="1" as="geometry">
            <mxPoint x="-35" y="-125" as="offset" />
          </mxGeometry>
        </mxCell>
        <mxCell id="Vm0NTs8RJYQJ-9ndtkTR-189" value="" style="shape=link;html=1;rounded=0;exitX=0.854;exitY=0.671;exitDx=0;exitDy=0;exitPerimeter=0;" edge="1" parent="1" source="Vm0NTs8RJYQJ-9ndtkTR-169" target="Vm0NTs8RJYQJ-9ndtkTR-172">
          <mxGeometry relative="1" as="geometry">
            <mxPoint x="780" y="250" as="sourcePoint" />
            <mxPoint x="940" y="250" as="targetPoint" />
          </mxGeometry>
        </mxCell>
        <mxCell id="Vm0NTs8RJYQJ-9ndtkTR-190" value="&lt;font style=&quot;font-size: 24px;&quot;&gt;N&lt;/font&gt;" style="resizable=0;html=1;whiteSpace=wrap;align=right;verticalAlign=bottom;" connectable="0" vertex="1" parent="Vm0NTs8RJYQJ-9ndtkTR-189">
          <mxGeometry x="1" relative="1" as="geometry">
            <mxPoint x="-32" y="-60" as="offset" />
          </mxGeometry>
        </mxCell>
        <mxCell id="Vm0NTs8RJYQJ-9ndtkTR-191" value="" style="endArrow=none;html=1;rounded=0;entryX=0;entryY=0.5;entryDx=0;entryDy=0;" edge="1" parent="1" source="Vm0NTs8RJYQJ-9ndtkTR-7" target="Vm0NTs8RJYQJ-9ndtkTR-169">
          <mxGeometry relative="1" as="geometry">
            <mxPoint x="770" y="300" as="sourcePoint" />
            <mxPoint x="930" y="300" as="targetPoint" />
          </mxGeometry>
        </mxCell>
        <mxCell id="Vm0NTs8RJYQJ-9ndtkTR-192" value="&lt;font style=&quot;font-size: 24px;&quot;&gt;M&lt;/font&gt;" style="resizable=0;html=1;whiteSpace=wrap;align=right;verticalAlign=bottom;" connectable="0" vertex="1" parent="Vm0NTs8RJYQJ-9ndtkTR-191">
          <mxGeometry x="1" relative="1" as="geometry">
            <mxPoint x="-20" y="-53" as="offset" />
          </mxGeometry>
        </mxCell>
        <mxCell id="Vm0NTs8RJYQJ-9ndtkTR-193" value="" style="endArrow=none;html=1;rounded=0;entryX=0;entryY=0.5;entryDx=0;entryDy=0;" edge="1" parent="1">
          <mxGeometry relative="1" as="geometry">
            <mxPoint x="474" y="-221" as="sourcePoint" />
            <mxPoint x="750" y="121" as="targetPoint" />
          </mxGeometry>
        </mxCell>
        <mxCell id="Vm0NTs8RJYQJ-9ndtkTR-194" value="Comment" style="html=1;overflow=block;blockSpacing=1;whiteSpace=wrap;ellipse;fontSize=20;fontStyle=1;spacing=3.8;strokeColor=#unset;fillOpacity=100;rounded=1;absoluteArcSize=1;arcSize=9;fillColor=#ff80df;strokeWidth=3;lucidId=GgcSaqkLiSj-;" vertex="1" parent="1">
          <mxGeometry x="571" y="799" width="126" height="94" as="geometry" />
        </mxCell>
        <mxCell id="Vm0NTs8RJYQJ-9ndtkTR-195" value="" style="endArrow=none;html=1;rounded=0;exitX=0.25;exitY=1;exitDx=0;exitDy=0;entryX=1;entryY=0;entryDx=0;entryDy=0;" edge="1" parent="1" source="Vm0NTs8RJYQJ-9ndtkTR-149" target="Vm0NTs8RJYQJ-9ndtkTR-194">
          <mxGeometry relative="1" as="geometry">
            <mxPoint x="560" y="470" as="sourcePoint" />
            <mxPoint x="634" y="830" as="targetPoint" />
          </mxGeometry>
        </mxCell>
        <mxCell id="Vm0NTs8RJYQJ-9ndtkTR-196" value="" style="endArrow=none;html=1;rounded=0;entryX=1;entryY=0.5;entryDx=0;entryDy=0;" edge="1" parent="1" source="Vm0NTs8RJYQJ-9ndtkTR-7" target="Vm0NTs8RJYQJ-9ndtkTR-29">
          <mxGeometry relative="1" as="geometry">
            <mxPoint x="260" y="110" as="sourcePoint" />
            <mxPoint x="300" y="-157" as="targetPoint" />
          </mxGeometry>
        </mxCell>
        <mxCell id="Vm0NTs8RJYQJ-9ndtkTR-197" value="&lt;font style=&quot;font-size: 24px;&quot;&gt;N&lt;/font&gt;" style="resizable=0;html=1;whiteSpace=wrap;align=right;verticalAlign=bottom;" connectable="0" vertex="1" parent="Vm0NTs8RJYQJ-9ndtkTR-196">
          <mxGeometry x="1" relative="1" as="geometry">
            <mxPoint x="60" as="offset" />
          </mxGeometry>
        </mxCell>
        <mxCell id="Vm0NTs8RJYQJ-9ndtkTR-198" value="" style="endArrow=none;html=1;rounded=0;exitX=0;exitY=0.5;exitDx=0;exitDy=0;entryX=1;entryY=0.5;entryDx=0;entryDy=0;" edge="1" parent="1" source="Vm0NTs8RJYQJ-9ndtkTR-29" target="Vm0NTs8RJYQJ-9ndtkTR-4">
          <mxGeometry relative="1" as="geometry">
            <mxPoint x="260" y="110" as="sourcePoint" />
            <mxPoint x="170" y="-20" as="targetPoint" />
          </mxGeometry>
        </mxCell>
        <mxCell id="Vm0NTs8RJYQJ-9ndtkTR-199" value="&lt;font size=&quot;5&quot;&gt;M&lt;/font&gt;" style="resizable=0;html=1;whiteSpace=wrap;align=right;verticalAlign=bottom;" connectable="0" vertex="1" parent="Vm0NTs8RJYQJ-9ndtkTR-198">
          <mxGeometry x="1" relative="1" as="geometry">
            <mxPoint x="53" y="-18" as="offset" />
          </mxGeometry>
        </mxCell>
        <mxCell id="Vm0NTs8RJYQJ-9ndtkTR-201" value="&lt;b&gt;&lt;font color=&quot;#ffffff&quot; style=&quot;font-size: 24px; background-color: rgb(0, 0, 0);&quot;&gt;D&lt;/font&gt;&lt;/b&gt;" style="text;html=1;align=center;verticalAlign=middle;resizable=0;points=[];autosize=1;strokeColor=none;fillColor=none;" vertex="1" parent="1">
          <mxGeometry x="197.5" y="-30" width="40" height="40" as="geometry" />
        </mxCell>
        <mxCell id="Vm0NTs8RJYQJ-9ndtkTR-202" value="&lt;font size=&quot;5&quot; color=&quot;#ffffff&quot;&gt;&lt;span style=&quot;caret-color: rgb(255, 255, 255); background-color: rgb(0, 0, 0);&quot;&gt;&lt;b&gt;O&lt;/b&gt;&lt;/span&gt;&lt;/font&gt;" style="text;html=1;align=center;verticalAlign=middle;resizable=0;points=[];autosize=1;strokeColor=none;fillColor=none;" vertex="1" parent="1">
          <mxGeometry x="-413.5" y="215" width="40" height="40" as="geometry" />
        </mxCell>
        <mxCell id="Vm0NTs8RJYQJ-9ndtkTR-203" value="&lt;b&gt;&lt;font color=&quot;#ffffff&quot; style=&quot;font-size: 24px; background-color: rgb(0, 0, 0);&quot;&gt;D&lt;/font&gt;&lt;/b&gt;" style="text;html=1;align=center;verticalAlign=middle;resizable=0;points=[];autosize=1;strokeColor=none;fillColor=none;" vertex="1" parent="1">
          <mxGeometry x="-150" y="-27.5" width="40" height="40" as="geometry" />
        </mxCell>
      </root>
    </mxGraphModel>
  </diagram>
</mxfile>
